Coordinates
version=1
nRows=29
nColumns=34
inDegrees=yes

Units are S.I. units (second, meters, Newtons, ...)
If the header above contains a line with 'inDegrees', this indicates whether rotational values are in degrees (yes) or radians (no).

endheader
time	pelvis_tilt	pelvis_list	pelvis_rotation	pelvis_tx	pelvis_ty	pelvis_tz	hip_flexion_r	hip_adduction_r	hip_rotation_r	knee_angle_r	ankle_angle_r	subtalar_angle_r	mtp_angle_r	hip_flexion_l	hip_adduction_l	hip_rotation_l	knee_angle_l	ankle_angle_l	subtalar_angle_l	mtp_angle_l	lumbar_extension	lumbar_bending	lumbar_rotation	arm_flex_r	arm_add_r	arm_rot_r	elbow_flex_r	pro_sup_r	arm_flex_l	arm_add_l	arm_rot_l	elbow_flex_l	pro_sup_l
11.450000	-21.399130	2.746090	1.010852	0.712012	0.703816	-0.072208	78.357390	-13.396825	-1.252434	74.032207	17.028854	-22.509767	0.000000	75.999971	-9.942237	-6.329409	72.948345	21.796054	-15.285935	0.000000	-15.474194	-1.844502	-0.174290	120.308014	-8.441884	54.613969	25.320169	62.520874	117.023124	-8.208557	57.047976	18.232866	51.217148
11.466667	-21.549156	2.716889	1.082516	0.710145	0.697616	-0.072320	79.467880	-13.468548	-1.027330	75.211891	17.350961	-22.306382	0.000000	77.054135	-10.018796	-6.199051	74.050540	22.193194	-15.133101	0.000000	-16.149794	-1.747053	-0.388565	121.332143	-8.313852	54.799781	25.381528	62.382916	118.038088	-8.196330	57.397987	18.018381	50.751001
11.483333	-21.649976	2.669043	1.200993	0.708203	0.691400	-0.072224	80.501949	-13.566223	-0.833574	76.382470	17.683609	-22.134062	0.000000	78.076300	-10.060057	-6.032564	75.146205	22.580544	-14.974676	0.000000	-16.823707	-1.630876	-0.634258	122.230678	-8.182375	54.770038	25.478741	62.268292	118.945075	-8.184797	57.527562	17.815537	50.375663
11.500000	-21.710630	2.606299	1.356490	0.706143	0.685124	-0.071924	81.483211	-13.683854	-0.679275	77.549460	18.043197	-21.972365	0.000000	79.093433	-10.068759	-5.816001	76.254043	22.955185	-14.817820	0.000000	-17.500488	-1.510284	-0.884907	123.055537	-8.061981	54.614221	25.555113	62.166634	119.791962	-8.155361	57.532070	17.605533	50.035417
11.516667	-21.752422	2.534652	1.531899	0.703985	0.678805	-0.071472	82.442763	-13.807437	-0.560370	78.705833	18.405113	-21.831715	0.000000	80.127643	-10.049695	-5.545511	77.375094	23.297151	-14.689618	0.000000	-18.171275	-1.400739	-1.120915	123.844012	-7.965590	54.408577	25.583245	62.076013	120.618048	-8.105744	57.479880	17.396402	49.712856
11.533333	-21.801285	2.461470	1.706443	0.701844	0.672535	-0.070948	83.402197	-13.919632	-0.463634	79.831651	18.727533	-21.737789	0.000000	81.183954	-10.007469	-5.227503	78.491997	23.581948	-14.623226	0.000000	-18.816763	-1.313729	-1.330866	124.610126	-7.899441	54.206153	25.561547	62.001201	121.441349	-8.048888	57.407211	17.209138	49.421748
11.550000	-21.877854	2.394197	1.861757	0.699828	0.666454	-0.070421	84.365824	-14.007220	-0.373672	80.902106	18.984290	-21.700720	0.000000	82.250110	-9.943530	-4.874245	79.576905	23.799470	-14.636210	0.000000	-19.419894	-1.254143	-1.509914	125.351696	-7.861201	54.035343	25.498293	61.946116	122.262409	-7.999729	57.329421	17.053846	49.174880
11.566667	-21.991840	2.339649	1.986656	0.697917	0.660642	-0.069910	85.332027	-14.064452	-0.277724	81.900291	19.170297	-21.709159	0.000000	83.308229	-9.855749	-4.498177	80.602451	23.955385	-14.728350	0.000000	-19.975980	-1.222849	-1.655142	126.064940	-7.844387	53.904641	25.400936	61.909948	123.075334	-7.963355	57.252235	16.924138	48.966310
11.583333	-22.144205	2.303526	2.077910	0.696036	0.655094	-0.069384	86.303331	-14.090614	-0.167085	82.822378	19.287094	-21.750386	0.000000	84.344390	-9.742162	-4.109436	81.548207	24.055279	-14.897064	0.000000	-20.490731	-1.220645	-1.759335	126.753353	-7.844913	53.811739	25.273548	61.889055	123.872113	-7.930248	57.176831	16.808471	48.776446
11.600000	-22.331835	2.289170	2.139547	0.694161	0.649785	-0.068800	87.282472	-14.087220	-0.037536	83.670566	19.334335	-21.826394	0.000000	85.351388	-9.603783	-3.716576	82.404337	24.091810	-15.148503	0.000000	-20.973106	-1.248728	-1.809635	127.426025	-7.863932	53.752412	25.116945	61.879723	124.641338	-7.877230	57.101420	16.698097	48.580693
11.616667	-22.550594	2.296019	2.180191	0.692323	0.644705	-0.068124	88.265144	-14.056751	0.109655	84.445021	19.310940	-21.952739	0.000000	86.327996	-9.445534	-3.327172	83.173263	24.044483	-15.496156	0.000000	-21.429709	-1.306793	-1.793312	128.089915	-7.905918	53.725627	24.931484	61.879485	125.368720	-7.776413	57.021735	16.587418	48.354692
11.633333	-22.795983	2.318651	2.208865	0.690555	0.639815	-0.067339	89.240501	-14.002828	0.267044	85.147074	19.220625	-22.146345	0.000000	87.277860	-9.276488	-2.946341	83.868742	23.894952	-15.946447	0.000000	-21.862652	-1.391393	-1.706850	128.744506	-7.974154	53.732634	24.722168	61.886976	126.042154	-7.610970	56.932122	16.474813	48.080575
11.650000	-23.062051	2.346935	2.233927	0.688892	0.635050	-0.066452	90.197411	-13.932605	0.422772	85.789247	19.079650	-22.410538	0.000000	88.208201	-9.108105	-2.576105	84.513393	23.653473	-16.472756	0.000000	-22.270655	-1.494488	-1.563118	129.380404	-8.067740	53.769575	24.504045	61.900434	126.655152	-7.389412	56.828694	16.370239	47.758315
11.666667	-23.342497	2.367554	2.264921	0.687406	0.630355	-0.065498	91.128907	-13.858248	0.563673	86.397085	18.921057	-22.726991	0.000000	89.128011	-8.951961	-2.217071	85.133476	23.371915	-17.000440	0.000000	-22.650113	-1.603511	-1.392349	129.979797	-8.181222	53.820308	24.304552	61.916258	127.206870	-7.146483	56.711986	16.302307	47.414552
11.683333	-23.633889	2.366938	2.312614	0.686150	0.625719	-0.064512	92.033338	-13.793396	0.678410	86.997659	18.783578	-23.065496	0.000000	90.047001	-8.817685	-1.869371	85.750421	23.117177	-17.437694	0.000000	-22.996444	-1.704706	-1.233695	130.524392	-8.305526	53.861226	24.154505	61.929850	127.705340	-6.922476	56.584121	16.305869	47.089444
11.700000	-23.935662	2.334965	2.386794	0.685137	0.621183	-0.063532	92.910575	-13.748880	0.760707	87.604988	18.690611	-23.402367	0.000000	90.970252	-8.709947	-1.533823	86.371595	22.927655	-17.731328	0.000000	-23.306050	-1.785476	-1.121137	131.005610	-8.430073	53.875869	24.072125	61.938240	128.166474	-6.738315	56.443469	16.394679	46.808046
11.716667	-24.246895	2.267666	2.493231	0.684393	0.616840	-0.062646	93.754494	-13.732822	0.810775	88.213392	18.642969	-23.723447	0.000000	91.889761	-8.627328	-1.215321	86.987803	22.803980	-17.883872	0.000000	-23.576434	-1.833838	-1.075024	131.422807	-8.545028	53.862301	24.057738	61.941291	128.603493	-6.593041	56.284211	16.549727	46.568647
11.733333	-24.564913	2.167783	2.630117	0.683930	0.612786	-0.061975	94.552885	-13.751084	0.834143	88.801925	18.628928	-24.012488	0.000000	92.785288	-8.564751	-0.924336	87.581041	22.733186	-17.926485	0.000000	-23.805882	-1.839728	-1.102034	131.775364	-8.642608	53.828417	24.100283	61.940677	129.020453	-6.477370	56.099389	16.730994	46.352622
11.750000	-24.887015	2.044109	2.786007	0.683700	0.609057	-0.061612	95.296752	-13.804825	0.839535	89.348329	18.637042	-24.245012	0.000000	93.635029	-8.517574	-0.673500	88.135309	22.709899	-17.889067	0.000000	-23.993149	-1.799252	-1.196738	132.060779	-8.717540	53.784578	24.184995	61.938480	129.414530	-6.383547	55.882136	16.894797	46.135718
11.766667	-25.211132	1.910021	2.942418	0.683632	0.605596	-0.061551	95.988435	-13.888921	0.836664	89.845543	18.664854	-24.394871	0.000000	94.427120	-8.485146	-0.471443	88.645348	22.741456	-17.785766	0.000000	-24.136932	-1.717978	-1.342972	132.277874	-8.767534	53.738918	24.298017	61.936348	129.779929	-6.308599	55.625593	17.007245	45.894001
11.783333	-25.532581	1.779187	3.082654	0.683657	0.602248	-0.061682	96.642637	-13.994586	0.834543	90.310187	18.721138	-24.448270	0.000000	95.166678	-8.469660	-0.317297	89.121496	22.839712	-17.615468	0.000000	-24.239010	-1.608567	-1.518940	132.432427	-8.793792	53.695067	24.426795	61.935072	130.113487	-6.253298	55.325124	17.053244	45.608800
11.800000	-25.840719	1.659489	3.201566	0.683689	0.598836	-0.061872	97.279546	-14.113861	0.841284	90.775774	18.818783	-24.416863	0.000000	95.873589	-8.469550	-0.199348	89.587128	23.005105	-17.377376	0.000000	-24.310936	-1.482289	-1.705648	132.543967	-8.799607	53.652086	24.557352	61.934506	130.422809	-6.219190	54.984873	17.039281	45.274244
11.816667	-26.120057	1.550609	3.308026	0.683645	0.595243	-0.062058	97.913968	-14.242184	0.864891	91.275675	18.963760	-24.337662	0.000000	96.571953	-8.474340	-0.099310	90.070560	23.215902	-17.089366	0.000000	-24.377069	-1.341484	-1.892474	132.649324	-8.787450	53.606549	24.670747	61.933741	130.730846	-6.206562	54.623271	16.987680	44.902913
11.833333	-26.355361	1.446824	3.419037	0.683466	0.591420	-0.062239	98.549911	-14.378210	0.912402	91.830157	19.154005	-24.253068	0.000000	97.280675	-8.467315	0.000889	90.596914	23.433982	-16.785937	0.000000	-24.469212	-1.179681	-2.075530	132.798994	-8.755649	53.556135	24.739385	61.931211	131.072419	-6.211734	54.267074	16.922446	44.518534
11.850000	-26.537011	1.341207	3.549702	0.683149	0.587373	-0.062424	99.181975	-14.521564	0.985999	92.443040	19.387909	-24.185739	0.000000	98.007859	-8.434860	0.114227	91.180414	23.623204	-16.497889	0.000000	-24.615811	-0.987985	-2.251739	133.044284	-8.694168	53.503625	24.725839	61.924603	131.483370	-6.223778	53.937183	16.854138	44.138511
11.866667	-26.664249	1.228390	3.705642	0.682817	0.583191	-0.062615	99.796517	-14.671699	1.078989	93.103564	19.667202	-24.131278	0.000000	98.744116	-8.375100	0.245985	91.817872	23.767059	-16.236810	0.000000	-24.829219	-0.761062	-2.415186	133.414449	-8.583594	53.459293	24.589197	61.910715	131.980548	-6.225025	53.639664	16.774767	43.760822
11.883333	-26.745695	1.106743	3.882150	0.682685	0.579011	-0.062813	100.375995	-14.828767	1.177236	93.791537	19.990648	-24.072405	0.000000	99.463180	-8.299247	0.392194	92.490515	23.875996	-15.994429	0.000000	-25.096997	-0.501735	-2.555951	133.899167	-8.404895	53.438502	24.299452	61.885339	132.544055	-6.193824	53.366570	16.666286	43.364421
11.900000	-26.796366	0.980182	4.066073	0.682818	0.574908	-0.063003	100.912582	-14.991587	1.266508	94.485737	20.345764	-23.999026	0.000000	100.138785	-8.226388	0.541485	93.174650	23.979219	-15.753451	0.000000	-25.388924	-0.225334	-2.659517	134.459978	-8.155146	53.454242	23.852159	61.843438	133.127890	-6.107801	53.104152	16.514852	42.924583
11.916667	-26.832272	0.857021	4.237568	0.683068	0.570852	-0.063167	101.417946	-15.153410	1.338258	95.172054	20.704753	-23.918042	0.000000	100.761232	-8.177519	0.681644	93.850927	24.107365	-15.496896	0.000000	-25.677155	0.042902	-2.712956	135.059344	-7.851209	53.509886	23.276424	61.780586	133.694551	-5.953956	52.842924	16.319063	42.432529
